<svg width="290" height="41" viewBox="0 0 290 41" fill="none" xmlns="http://www.w3.org/2000/svg">
<path fill-rule="evenodd" clip-rule="evenodd" d="M20 0C8.95431 0 0 8.95431 0 20V21C0 32.0457 8.9543 41 20 41H270C281.046 41 290 32.0457 290 21V20C290 8.95431 281.046 0 270 0H20ZM124.362 14.28C124.351 14.472 124.346 14.6213 124.346 14.728V16.376V16.6V16.888C124.346 16.984 124.341 17.0747 124.33 17.16C124.33 17.2453 124.325 17.304 124.314 17.336L121.706 17.352C121.685 17.352 121.674 17.2293 121.674 16.984V16.12V15.208C121.685 14.9093 121.69 14.7227 121.69 14.648V14.616L121.658 14.168C121.647 14.0187 121.615 13.8693 121.562 13.72C121.402 13.2613 121.055 13.032 120.522 13.032C120.33 13.032 120.17 13.0853 120.042 13.192C119.914 13.288 119.807 13.416 119.722 13.576C119.647 13.7253 119.589 13.8907 119.546 14.072C119.514 14.2533 119.498 14.4187 119.498 14.568V22.936V23.192C119.498 23.32 119.509 23.464 119.53 23.624C119.562 23.784 119.61 23.9493 119.674 24.12C119.749 24.28 119.855 24.4133 119.994 24.52C120.186 24.6693 120.394 24.7653 120.618 24.808C120.853 24.8507 121.098 24.872 121.354 24.872H124.714C124.746 24.872 124.805 24.8667 124.89 24.856C124.975 24.8453 125.071 24.8293 125.178 24.808C125.285 24.776 125.386 24.7387 125.482 24.696C125.589 24.6533 125.685 24.5893 125.77 24.504C125.802 24.472 125.85 24.4187 125.914 24.344C125.989 24.2587 126.042 24.1787 126.074 24.104C126.159 23.944 126.223 23.736 126.266 23.48C126.319 23.2133 126.357 22.9573 126.378 22.712C126.399 22.456 126.41 22.232 126.41 22.04V21.688V15.816C126.421 15.6453 126.426 15.4267 126.426 15.16C126.426 14.8933 126.41 14.6267 126.378 14.36C126.357 14.0933 126.309 13.8533 126.234 13.64C126.17 13.416 126.074 13.2613 125.946 13.176C125.775 13.0587 125.578 13 125.354 13C125.098 13 124.901 13.0693 124.762 13.208C124.634 13.3467 124.538 13.512 124.474 13.704C124.41 13.896 124.373 14.088 124.362 14.28ZM131.098 17.592C131.055 17.5813 131.007 17.576 130.954 17.576H130.922C130.869 17.5867 130.794 17.5813 130.698 17.56H130.522C130.415 17.56 130.362 17.5547 130.362 17.544C130.341 17.4907 130.33 17.432 130.33 17.368V17.192V16.296C130.33 16.2427 130.325 16.1893 130.314 16.136C130.314 16.072 130.319 16.008 130.33 15.944C130.33 15.8267 130.325 15.7147 130.314 15.608V15.256L130.282 14.68C130.282 14.488 130.271 14.3013 130.25 14.12C130.25 14.0347 130.245 13.9707 130.234 13.928C130.213 13.7467 130.186 13.576 130.154 13.416C130.133 13.2453 130.047 13.0853 129.898 12.936C129.738 12.776 129.541 12.696 129.306 12.696C129.189 12.696 129.055 12.7173 128.906 12.76C128.767 12.792 128.661 12.8453 128.586 12.92C128.501 13.0053 128.431 13.1173 128.378 13.256C128.335 13.384 128.303 13.512 128.282 13.64C128.261 13.7573 128.25 13.864 128.25 13.96V14.104V23.608C128.25 23.7787 128.261 23.976 128.282 24.2C128.303 24.4133 128.351 24.6213 128.426 24.824C128.511 25.0267 128.629 25.1973 128.778 25.336C128.938 25.4747 129.146 25.5493 129.402 25.56L129.434 25.576C129.647 25.576 129.818 25.5013 129.946 25.352C130.042 25.256 130.117 25.1387 130.17 25C130.223 24.8507 130.261 24.696 130.282 24.536C130.303 24.376 130.314 24.216 130.314 24.056C130.325 23.8853 130.33 23.7307 130.33 23.592V23.368C130.351 22.8347 130.351 22.2907 130.33 21.736V21.272V20.728V20.184V19.72V19.672L130.346 19.656H130.362C130.373 19.6453 130.383 19.64 130.394 19.64C130.565 19.6293 130.773 19.6293 131.018 19.64C131.263 19.6507 131.471 19.6453 131.642 19.624C131.781 19.592 131.925 19.5227 132.074 19.416C132.149 19.3627 132.197 19.288 132.218 19.192C132.25 19.096 132.277 19.0053 132.298 18.92C132.319 18.8347 132.33 18.76 132.33 18.696C132.341 18.6213 132.346 18.5413 132.346 18.456C132.346 18.296 132.309 18.1573 132.234 18.04C132.181 17.9227 132.095 17.8373 131.978 17.784C131.861 17.72 131.743 17.6773 131.626 17.656C131.562 17.6453 131.498 17.64 131.434 17.64C131.37 17.6293 131.311 17.6187 131.258 17.608C131.205 17.608 131.151 17.6027 131.098 17.592ZM124.33 19.32L124.346 22.92L121.562 22.936V22.6V22.12V21.64V21.288V20.872V20.312V19.768V19.336L124.33 19.32ZM143.259 22.648C143.227 22.648 143.195 22.6427 143.163 22.632C142.993 22.6107 142.817 22.6107 142.635 22.632C142.454 22.6427 142.267 22.6427 142.075 22.632H141.371C141.158 22.6213 140.939 22.616 140.715 22.616C140.502 22.616 140.283 22.6213 140.059 22.632H139.355L139.339 21.128H142.091C142.209 21.128 142.331 21.1227 142.459 21.112C142.598 21.0907 142.731 21.0533 142.859 21C143.051 20.9147 143.179 20.776 143.243 20.584C143.318 20.392 143.329 20.1893 143.275 19.976C143.222 19.7947 143.126 19.6667 142.987 19.592C142.859 19.5067 142.715 19.4587 142.555 19.448C142.47 19.4373 142.379 19.432 142.283 19.432H142.011H135.675V18.152H141.995C142.123 18.1627 142.257 18.1627 142.395 18.152C142.534 18.1307 142.678 18.0773 142.827 17.992C142.913 17.9387 142.982 17.848 143.035 17.72C143.099 17.5813 143.147 17.4373 143.179 17.288C143.211 17.1387 143.233 16.9947 143.243 16.856C143.265 16.7173 143.275 16.6053 143.275 16.52V14.408C143.275 14.1733 143.238 13.9333 143.163 13.688C143.089 13.432 142.923 13.2667 142.667 13.192C142.497 13.1387 142.321 13.1067 142.139 13.096C141.958 13.0853 141.777 13.08 141.595 13.08H138.363C138.129 13.08 137.867 13.0853 137.579 13.096H136.747H135.947C135.702 13.0853 135.494 13.08 135.323 13.08H134.763H134.491C134.417 13.08 134.337 13.0907 134.251 13.112C134.134 13.1333 133.979 13.192 133.787 13.288C133.595 13.384 133.473 13.528 133.419 13.72C133.355 13.9973 133.393 14.2587 133.531 14.504C133.649 14.7067 133.798 14.8293 133.979 14.872C134.118 14.9147 134.299 14.936 134.523 14.936H134.715C134.79 14.9253 134.859 14.92 134.923 14.92H135.099C135.163 14.9093 135.222 14.904 135.275 14.904H141.115V16.248H135.435C135.361 16.2587 135.259 16.2587 135.131 16.248C135.014 16.2373 134.929 16.232 134.875 16.232C134.641 16.232 134.395 16.2587 134.139 16.312C133.894 16.3547 133.702 16.4667 133.563 16.648C133.467 16.7653 133.409 16.8987 133.387 17.048C133.377 17.1867 133.377 17.32 133.387 17.448V17.832V18.264V18.92C133.398 19.1547 133.403 19.3787 133.403 19.592C133.414 19.8053 133.425 19.96 133.435 20.056C133.457 20.3333 133.542 20.5733 133.691 20.776C133.841 20.9787 134.027 21.0907 134.251 21.112C134.486 21.1227 134.715 21.128 134.939 21.128H135.611H137.275L137.291 22.632C136.225 22.6107 135.179 22.6107 134.155 22.632H134.075C133.841 22.6427 133.606 22.648 133.371 22.648C133.147 22.648 132.929 22.6907 132.715 22.776C132.555 22.84 132.427 22.9573 132.331 23.128C132.235 23.2987 132.187 23.464 132.187 23.624C132.187 23.88 132.299 24.1093 132.523 24.312C132.705 24.4613 132.923 24.5467 133.179 24.568C133.435 24.5787 133.675 24.5787 133.899 24.568H134.059C134.113 24.5573 134.166 24.552 134.219 24.552H143.179H143.323C143.419 24.552 143.526 24.5467 143.643 24.536C143.761 24.5147 143.883 24.4827 144.011 24.44C144.139 24.3973 144.246 24.3333 144.331 24.248C144.395 24.1733 144.443 24.072 144.475 23.944C144.518 23.8053 144.539 23.6773 144.539 23.56C144.539 23.336 144.465 23.1493 144.315 23C144.166 22.872 144.011 22.7867 143.851 22.744C143.702 22.6907 143.537 22.6533 143.355 22.632C143.323 22.632 143.291 22.6373 143.259 22.648ZM149.492 22.36C149.492 22.488 149.497 22.616 149.508 22.744V23.448C149.508 23.864 149.593 24.2427 149.764 24.584C149.817 24.7013 149.913 24.792 150.052 24.856C150.19 24.9093 150.329 24.936 150.468 24.936C150.649 24.936 150.83 24.8987 151.012 24.824C151.15 24.7707 151.262 24.7013 151.348 24.616C151.433 24.5307 151.497 24.4347 151.54 24.328C151.593 24.2213 151.63 24.1093 151.652 23.992C151.673 23.8747 151.689 23.7627 151.7 23.656C151.71 23.4853 151.716 23.288 151.716 23.064V22.408C151.716 22.1947 151.71 22.0133 151.7 21.864V21.608V16.36V15.48C151.7 15.1813 151.689 14.8827 151.668 14.584C151.646 14.4027 151.625 14.2373 151.604 14.088C151.593 13.9387 151.54 13.7893 151.444 13.64C151.39 13.5653 151.321 13.5013 151.236 13.448C151.161 13.3947 151.081 13.352 150.996 13.32C150.868 13.2667 150.724 13.2347 150.564 13.224C150.414 13.2027 150.27 13.1813 150.132 13.16H147.348C147.113 13.16 146.873 13.1653 146.628 13.176C146.382 13.176 146.148 13.2027 145.924 13.256C145.849 13.2773 145.758 13.3093 145.652 13.352C145.556 13.384 145.481 13.4267 145.428 13.48C145.342 13.5333 145.273 13.624 145.22 13.752C145.124 13.9547 145.081 14.1573 145.092 14.36C145.092 14.5307 145.118 14.696 145.172 14.856C145.225 15.016 145.326 15.1493 145.476 15.256C145.582 15.3307 145.7 15.3733 145.828 15.384C145.956 15.3947 146.078 15.4 146.196 15.4C146.281 15.4 146.356 15.4053 146.42 15.416C146.494 15.416 146.574 15.4107 146.66 15.4C146.841 15.3893 147.022 15.3893 147.204 15.4C147.385 15.4107 147.566 15.4107 147.748 15.4H148.5C148.574 15.4107 148.644 15.4107 148.708 15.4C148.782 15.3893 148.857 15.3893 148.932 15.4C148.996 15.4107 149.06 15.416 149.124 15.416C149.198 15.4053 149.262 15.416 149.316 15.448C149.369 15.4693 149.401 15.528 149.412 15.624C149.433 15.72 149.449 15.7947 149.46 15.848C149.481 16.0293 149.492 16.2053 149.492 16.376V16.888V21.976V22.36ZM156.74 17.592C156.58 17.5813 156.425 17.5707 156.276 17.56V17.192V16.216C156.276 15.992 156.27 15.8267 156.26 15.72V15.464V15.256L156.228 14.68C156.228 14.488 156.217 14.3013 156.196 14.12C156.196 14.0347 156.19 13.9707 156.18 13.928C156.158 13.7467 156.132 13.576 156.1 13.416C156.078 13.2453 155.993 13.0853 155.844 12.936C155.684 12.776 155.486 12.696 155.252 12.696C155.134 12.696 155.001 12.7173 154.852 12.76C154.713 12.792 154.606 12.8453 154.532 12.92C154.446 13.0053 154.377 13.1173 154.324 13.256C154.281 13.384 154.249 13.512 154.228 13.64C154.206 13.7573 154.196 13.864 154.196 13.96V14.104V23.608C154.196 23.7787 154.206 23.976 154.228 24.2C154.249 24.4133 154.297 24.6213 154.372 24.824C154.457 25.0267 154.574 25.1973 154.724 25.336C154.884 25.4747 155.092 25.5493 155.348 25.56L155.38 25.576C155.593 25.576 155.764 25.5013 155.892 25.352C155.988 25.256 156.062 25.1387 156.116 25C156.169 24.8507 156.206 24.696 156.228 24.536C156.249 24.376 156.26 24.216 156.26 24.056C156.27 23.8853 156.276 23.7307 156.276 23.592V23.368C156.297 22.8347 156.297 22.2907 156.276 21.736V21.272V20.728V20.184V19.72C156.276 19.6667 156.297 19.64 156.34 19.64C156.51 19.6293 156.718 19.6293 156.964 19.64C157.209 19.6507 157.417 19.6453 157.588 19.624C157.673 19.6027 157.748 19.576 157.812 19.544C157.876 19.512 157.94 19.4693 158.004 19.416C158.142 19.3093 158.222 19.16 158.244 18.968C158.276 18.776 158.292 18.6053 158.292 18.456C158.292 18.232 158.222 18.056 158.084 17.928C157.956 17.7893 157.785 17.6987 157.572 17.656L157.38 17.624C157.316 17.6133 157.257 17.608 157.204 17.608C157.054 17.5973 156.9 17.592 156.74 17.592ZM170.213 25.064C170.255 24.936 170.282 24.8133 170.293 24.696C170.303 24.568 170.319 24.44 170.341 24.312C170.351 24.216 170.351 24.12 170.341 24.024V23.736V19.688C170.341 18.92 170.346 18.104 170.357 17.24C170.367 16.376 170.362 15.5333 170.341 14.712V14.632L170.309 13.896C170.298 13.6507 170.245 13.416 170.149 13.192C170.085 13.0107 169.973 12.872 169.813 12.776C169.663 12.6693 169.498 12.616 169.317 12.616C169.167 12.616 169.029 12.632 168.901 12.664C168.773 12.6853 168.65 12.7547 168.533 12.872C168.458 12.9467 168.399 13.048 168.357 13.176C168.314 13.304 168.282 13.4427 168.261 13.592C168.239 13.7413 168.229 13.8907 168.229 14.04V14.456V24.344V24.504C168.229 24.6 168.239 24.712 168.261 24.84C168.293 24.968 168.33 25.096 168.373 25.224C168.426 25.3627 168.501 25.4747 168.597 25.56C168.703 25.656 168.842 25.72 169.013 25.752C169.311 25.8267 169.583 25.7893 169.829 25.64C169.946 25.5547 170.042 25.4373 170.117 25.288C170.138 25.2453 170.154 25.208 170.165 25.176C170.175 25.144 170.191 25.1067 170.213 25.064ZM162.773 22.36C162.773 22.488 162.778 22.616 162.789 22.744V23.448C162.789 23.864 162.874 24.2427 163.045 24.584C163.098 24.7013 163.194 24.792 163.333 24.856C163.471 24.9093 163.61 24.936 163.749 24.936C163.93 24.936 164.111 24.8987 164.293 24.824C164.431 24.7707 164.543 24.7013 164.629 24.616C164.714 24.5307 164.778 24.4347 164.821 24.328C164.874 24.2213 164.911 24.1093 164.933 23.992C164.954 23.8747 164.97 23.7627 164.981 23.656C164.991 23.4853 164.997 23.288 164.997 23.064V22.408C164.997 22.1947 164.991 22.0133 164.981 21.864V21.608V16.36V15.48C164.981 15.1813 164.97 14.8827 164.949 14.584C164.927 14.4027 164.906 14.2373 164.885 14.088C164.874 13.9387 164.821 13.7893 164.725 13.64C164.671 13.5653 164.602 13.5013 164.517 13.448C164.442 13.3947 164.362 13.352 164.277 13.32C164.149 13.2667 164.005 13.2347 163.845 13.224C163.695 13.2027 163.551 13.1813 163.413 13.16H160.629C160.394 13.16 160.154 13.1653 159.909 13.176C159.663 13.176 159.429 13.2027 159.205 13.256C159.13 13.2773 159.039 13.3093 158.933 13.352C158.837 13.384 158.762 13.4267 158.709 13.48C158.623 13.5333 158.554 13.624 158.501 13.752C158.405 13.9547 158.362 14.1573 158.373 14.36C158.373 14.5307 158.399 14.696 158.453 14.856C158.506 15.016 158.607 15.1493 158.757 15.256C158.863 15.3307 158.981 15.3733 159.109 15.384C159.237 15.3947 159.359 15.4 159.477 15.4C159.562 15.4 159.637 15.4053 159.701 15.416C159.775 15.416 159.855 15.4107 159.941 15.4C160.122 15.3893 160.303 15.3893 160.485 15.4C160.666 15.4107 160.847 15.4107 161.029 15.4H161.781C161.855 15.4107 161.925 15.4107 161.989 15.4C162.063 15.3893 162.138 15.3893 162.213 15.4C162.277 15.4107 162.341 15.416 162.405 15.416C162.479 15.4053 162.543 15.416 162.597 15.448C162.65 15.4693 162.682 15.528 162.693 15.624C162.714 15.72 162.73 15.7947 162.741 15.848C162.762 16.0293 162.773 16.2053 162.773 16.376V16.888V21.976V22.36Z" fill="white"/>
</svg>
